<svg width="100%" height="100%" viewBox="0 0 1388 1388" version="1.1" xmlns="http://www.w3.org/2000/svg"
    xmlns:xlink="http://www.w3.org/1999/xlink" xml:space="preserve"
    style="fill-rule:evenodd;clip-rule:evenodd;stroke-linejoin:round;stroke-miterlimit:2;">
    <rect id="Mesa-de-trabajo1" serif:id="Mesa de trabajo1" x="0" y="0" width="1387.68" height="1387.68"
        style="fill:none;" />
    <path
        d="M693.824,36.819c362.264,-0 657.048,294.73 657.059,657.005c-0,362.318 -294.795,657.037 -657.059,657.037c-362.275,0 -657.027,-294.719 -657.027,-657.037c0,-362.275 294.752,-657.005 657.027,-657.005Zm-0,1283.93c345.652,-0 626.868,-281.238 626.868,-626.922c0,-345.662 -281.216,-626.879 -626.868,-626.879c-345.673,0 -626.9,281.217 -626.9,626.879c-0,345.684 281.238,626.922 626.9,626.922Zm-563.634,-626.922c-0,-81.713 17.524,-159.286 48.798,-229.383l268.861,736.648c-188.007,-91.366 -317.659,-284.166 -317.659,-507.265Zm944.131,-28.442c-0,48.251 -18.544,104.245 -42.911,182.204l-56.219,187.868l-203.687,-605.891c33.912,-1.78 64.51,-5.373 64.51,-5.373c30.362,-3.593 26.791,-48.219 -3.614,-46.428c-0,0 -91.269,7.154 -150.213,7.154c-55.383,-0 -148.464,-7.154 -148.464,-7.154c-30.373,-1.791 -33.933,44.648 -3.56,46.428c-0,0 28.753,3.593 59.104,5.373l87.815,240.602l-123.346,369.933l-205.253,-610.513c33.977,-1.781 64.51,-5.373 64.51,-5.373c30.352,-3.593 26.77,-48.219 -3.614,-46.428c0,-0 -91.258,7.153 -150.212,7.153c-10.586,0 -23.048,-0.279 -36.272,-0.675c100.782,-153.023 274.02,-254.051 470.929,-254.051c146.738,-0 280.337,56.091 380.615,147.96c-2.435,-0.139 -4.805,-0.45 -7.304,-0.45c-55.351,-0 -94.647,48.229 -94.647,100.041c0,46.428 26.78,85.746 55.351,132.173c21.461,37.548 46.482,85.789 46.482,155.447Zm114.069,-241.975c44.026,80.287 69.058,172.435 69.047,270.428c-0,207.933 -112.708,389.473 -280.273,487.187l172.166,-497.773c32.175,-80.393 42.857,-144.689 42.857,-201.885c-0,-20.731 -1.373,-40.003 -3.797,-57.957Zm-484.678,319.719l173.271,474.65c1.126,2.789 2.499,5.352 4.011,7.765c-58.59,20.603 -121.534,31.95 -187.17,31.95c-55.33,-0 -108.729,-8.119 -159.221,-22.962l169.109,-491.403Z"
        style="fill:#21759b;" />
</svg>