<svg width="100%" height="100%" viewBox="0 0 267 267" version="1.1" xmlns="http://www.w3.org/2000/svg"
    xmlns:xlink="http://www.w3.org/1999/xlink" xml:space="preserve"
    style="fill-rule:evenodd;clip-rule:evenodd;stroke-linejoin:round;stroke-miterlimit:2;">
    <path
        d="M18.833,133.333c0,45.417 26.084,84.542 64.167,102.9l-54.017,-149.275c-6.275,14.492 -10.15,29.959 -10.15,46.375Zm191.792,-5.8c0,-14 -5.317,-24.166 -9.667,-31.4c-5.8,-9.666 -11.108,-17.391 -11.108,-27.05c0,-10.625 8.217,-20.291 19.333,-20.291l1.45,-0c-20.3,-18.842 -47.35,-29.959 -77.3,-29.959c-38.437,0.341 -74.304,19.724 -95.65,51.692l7.25,-0c12.084,-0 30.434,-1.45 30.434,-1.45c6.283,-0.483 6.766,8.692 0.966,9.667c0,-0 -6.283,0.966 -13.041,0.966l41.55,123.667l25.116,-74.883l-17.875,-48.792l-12.083,-0.95c-6.283,-0.483 -5.317,-9.667 0.483,-9.667c0,0 18.834,1.45 29.95,1.45c12.084,0 30.434,-1.45 30.434,-1.45c6.283,-0.483 6.766,8.692 0.966,9.667c0,-0 -6.283,0.967 -13.041,0.967l41.541,123.2l11.667,-38.167c4.833,-15.942 8.692,-27.05 8.692,-37.2l-0.067,-0.017Zm-75.358,15.942l-34.3,99.525c10.141,2.9 21.25,4.833 32.366,4.833c13.525,0 26.084,-2.5 38.167,-6.283c-0.483,-0.483 -0.483,-0.967 -0.967,-1.45l-35.266,-96.625Zm98.55,-64.725l0.966,11.667c0,11.666 -1.933,24.641 -8.691,41.066l-34.784,100.967c33.817,-19.808 57,-56.525 57,-99.033c-0.483,-19.809 -5.8,-38.167 -14.5,-54.584l0.009,-0.083Zm-100.484,-78.75c-73.433,-0 -133.333,59.9 -133.333,133.333c0,73.434 59.9,133.334 133.333,133.334c73.434,-0 133.334,-59.9 133.334,-133.334c-0,-73.433 -59.9,-133.333 -133.334,-133.333Zm0,260.867c-70.05,-0 -127.05,-57 -127.05,-127.534c0.11,-69.656 57.394,-126.94 127.05,-127.05c69.656,0.11 126.941,57.394 127.05,127.05c0,70.534 -57,127.534 -127.05,127.534Z"
        style="fill:#00749a;fill-rule:nonzero;" />
</svg>